<svg version="1.1" id="Layer_1" xmlns="http://www.w3.org/2000/svg" xmlns:xlink="http://www.w3.org/1999/xlink" x="0px" y="0px"
	 width="100%" viewBox="0 0 240 240" enable-background="new 0 0 240 240" xml:space="preserve">
<path fill="#000000" opacity="1.000000" stroke="none" 
	d="
M82.019577,87.028976 
	C75.040894,90.289024 71.719315,96.728035 69.898926,103.380173 
	C67.718681,111.347336 62.872833,117.160454 57.806355,123.110847 
	C49.717865,132.610504 41.747185,142.210358 33.696812,151.742615 
	C28.995089,157.309830 23.899153,162.354523 15.908710,162.297470 
	C7.150639,162.234955 0.453989,153.913177 2.011218,145.291229 
	C3.375097,137.739807 7.871988,131.889053 12.763128,126.468704 
	C32.304489,104.813080 53.474644,84.841019 76.072083,66.396660 
	C81.837257,61.691044 87.798111,57.225174 93.800209,52.546936 
	C90.965324,47.955040 88.871620,43.613548 87.852165,38.878235 
	C87.212921,35.908955 88.484573,33.819069 91.601204,35.335243 
	C99.802971,39.325233 107.115211,36.503059 114.482635,33.104485 
	C120.513351,30.322536 125.878143,26.221863 132.438690,24.458246 
	C140.286499,22.348597 148.621490,25.972845 151.980270,33.336666 
	C152.595581,34.685650 152.775894,36.274441 154.565765,36.701923 
	C160.091537,38.021656 162.666885,42.134666 164.176758,47.147465 
	C165.556931,46.935993 165.686203,45.788036 166.142776,45.033909 
	C167.066803,43.507622 167.554855,41.140614 169.954254,42.027740 
	C172.502014,42.969715 172.699585,45.639351 171.678101,47.517921 
	C169.519974,51.486851 170.839554,54.255333 173.148712,57.678112 
	C176.611694,62.811169 175.087082,67.258118 169.183899,71.730164 
	C158.872772,79.541512 147.437302,85.191856 135.194443,89.293839 
	C133.407516,89.892540 131.237198,89.815010 129.724503,91.945709 
	C134.630814,95.056297 139.664337,95.427620 144.978638,93.906380 
	C149.698334,92.555359 153.640930,89.698639 157.813431,87.288750 
	C167.627731,81.620346 177.898224,79.497314 188.880493,83.438828 
	C204.520248,89.051926 210.613144,108.615395 208.985703,121.145493 
	C207.273773,134.326126 201.322830,145.509796 193.718719,155.913788 
	C187.952545,163.803101 185.754959,172.523911 185.276917,182.029480 
	C184.902191,189.480225 184.843048,196.985168 183.349136,204.333969 
	C182.175934,210.105057 179.374252,214.578308 173.008865,215.693420 
	C166.754913,216.789017 162.448700,213.440094 158.937851,209.010513 
	C155.305969,204.428207 152.914001,199.056488 150.456497,193.769821 
	C148.832672,190.276596 146.851807,186.975311 144.377411,184.061172 
	C141.252899,180.381378 138.928040,180.596283 135.887817,184.377884 
	C132.610596,188.454269 131.058212,193.470337 128.457718,197.914124 
	C126.442589,201.357651 124.707130,205.006836 122.353691,208.200867 
	C118.531799,213.387817 113.774338,217.173645 106.667816,215.437637 
	C101.451363,214.163345 97.738159,208.480606 96.626495,201.237900 
	C95.609505,194.611969 95.841805,187.963440 95.534256,181.323227 
	C95.017258,170.161087 89.690987,161.209335 82.968208,152.633270 
	C74.809158,142.224991 69.866234,130.536972 69.486458,116.882187 
	C69.156532,105.019722 72.921494,95.398514 82.145981,87.158966 
	C93.154572,80.642464 104.040489,79.154022 115.535400,84.151558 
	C110.996368,80.540993 104.266068,80.284142 101.847351,72.906166 
	C96.948578,79.687317 90.352211,82.054100 84.071640,84.967484 
	C83.246422,85.350281 82.696831,86.327217 82.019577,87.028976 
M149.271011,69.069496 
	C139.659073,73.316597 130.393173,78.339760 120.432304,81.808357 
	C131.199051,79.622810 141.411743,76.178200 150.682098,68.832176 
	C155.340408,67.183464 158.974976,64.213760 161.952606,60.389118 
	C158.210907,63.593063 152.819366,64.574387 149.271011,69.069496 
M92.110619,150.444351 
	C101.612625,161.353119 104.997002,174.257202 104.306343,188.411774 
	C104.092514,192.793976 105.051437,197.020828 105.478111,201.313446 
	C105.727203,203.819427 106.630577,206.460403 109.391418,207.191666 
	C112.096474,207.908157 113.777565,205.688766 114.964554,203.784943 
	C117.602058,199.554642 120.040993,195.181183 122.268051,190.719910 
	C124.357864,186.533569 126.405251,182.324051 129.458481,178.769791 
	C136.617249,170.436249 144.855972,170.687881 151.703674,179.274292 
	C154.847260,183.216064 156.926605,187.760468 159.246750,192.181137 
	C161.629471,196.721024 163.320938,201.736099 167.345398,205.229706 
	C171.189102,208.566391 173.317520,207.909637 174.685074,202.921021 
	C176.371536,196.768967 176.422623,190.347076 176.492493,184.093964 
	C176.649094,170.079605 180.770935,157.870895 189.235794,146.607376 
	C197.268463,135.918915 202.377258,123.892181 200.706329,109.905968 
	C198.850479,94.371834 184.690811,84.925934 169.922958,89.616142 
	C164.924316,91.203697 160.865219,94.523224 156.630905,97.464729 
	C148.151199,103.355469 139.141815,105.281311 129.274612,101.374519 
	C124.573563,99.513191 120.656502,96.376076 116.489258,93.632599 
	C108.166595,88.153435 99.375328,86.095436 90.152184,91.183136 
	C81.096573,96.178413 77.301750,104.429893 77.385826,114.425369 
	C77.500366,128.041550 83.613297,139.387070 92.110619,150.444351 
M116.234039,38.885048 
	C110.380455,42.474247 103.936699,43.974388 96.773010,43.476318 
	C101.361488,53.095512 109.576469,56.455116 118.571182,53.412907 
	C128.831284,49.942711 136.610748,42.244720 146.176483,37.606308 
	C148.402466,36.526932 147.326675,34.656075 146.111343,33.485195 
	C142.819260,30.313498 138.997589,28.915243 134.302216,30.052553 
	C127.852783,31.614727 122.741745,35.801907 116.234039,38.885048 
M28.495443,122.974907 
	C22.359911,130.441086 15.144648,137.171219 12.132385,146.889664 
	C38.405159,118.933075 63.844395,90.301109 93.185509,65.551132 
	C94.430519,64.500931 95.406235,63.111958 96.399841,61.799385 
	C96.603523,61.530312 96.325050,60.896255 96.099937,59.031174 
	C71.470467,78.629936 49.728802,100.009628 28.495443,122.974907 
M134.177185,59.401516 
	C133.371277,57.963287 133.165192,55.868229 130.092575,56.085903 
	C131.294022,61.556007 132.434113,66.624962 137.364136,71.669304 
	C137.725723,66.398560 135.636398,63.347233 134.177185,59.401516 
M118.278534,72.111969 
	C119.175278,73.772369 119.647499,75.847908 122.835220,76.343803 
	C121.620804,70.702705 119.378693,66.119675 116.730553,61.655510 
	C114.926003,65.381424 117.020111,68.308281 118.278534,72.111969 
M150.994583,61.759068 
	C151.368927,55.680794 148.130905,49.229824 143.358337,47.672699 
	C145.587784,52.842922 146.709518,57.989204 150.994583,61.759068 
M127.548164,64.812363 
	C126.196930,63.044590 127.054832,59.275486 122.549622,59.638435 
	C123.822723,64.993881 125.453743,69.680191 129.322525,74.583809 
	C130.716522,70.265800 128.367050,68.088989 127.548164,64.812363 
M140.021606,60.583607 
	C141.046097,62.517994 141.144394,65.053574 143.506226,66.308548 
	C144.930359,61.879448 141.771820,54.285385 137.246078,51.506470 
	C136.832840,54.839680 138.808441,57.240765 140.021606,60.583607 
M153.979187,46.663631 
	C152.977249,45.223824 151.961151,43.807846 149.312180,43.920841 
	C152.050140,48.929489 154.529037,53.464245 157.007935,57.999001 
	C158.330490,53.577904 155.945389,50.540989 153.979187,46.663631 
M114.542961,77.099609 
	C113.085083,72.076347 111.627205,67.053085 110.169327,62.029819 
	C109.685852,62.189754 109.202385,62.349689 108.718910,62.509624 
	C107.506683,68.312080 110.353630,72.830231 114.542961,77.099609 
M104.767548,68.951668 
	C104.668274,66.897171 104.569008,64.842674 104.433922,62.046871 
	C102.319870,67.713295 103.038177,70.872314 106.734329,73.808731 
	C106.097389,72.365456 105.506332,71.026146 104.767548,68.951668 
z"/>
<path fill="#000000" opacity="1.000000" stroke="none" 
	d="
M203.028412,60.296757 
	C194.824173,62.130173 194.356155,69.140091 192.044525,75.458595 
	C190.457199,66.857468 186.885422,60.245983 176.601959,58.938202 
	C180.961334,56.180420 185.400696,56.109631 187.995743,52.800304 
	C190.309052,49.850212 190.093597,45.735268 192.984329,41.240089 
	C193.608765,51.315254 198.001404,56.770679 207.539963,57.682995 
	C206.160507,59.678566 204.622772,59.714630 203.028412,60.296757 
z"/>
<path fill="#000000" opacity="1.000000" stroke="none" 
	d="
M200.427109,81.798630 
	C199.259949,81.238678 198.056732,81.463585 197.346863,79.335846 
	C204.625977,79.240715 207.323227,74.344566 208.735260,67.646713 
	C210.440430,74.008591 212.784698,79.334160 220.929993,79.955544 
	C213.484634,81.534874 210.137543,85.845703 209.092606,92.655945 
	C207.057755,88.072380 206.678879,82.777771 200.427109,81.798630 
z"/>
<path fill="#000000" opacity="1.000000" stroke="none" 
	d="
M104.810173,115.224060 
	C107.149628,111.170509 110.385681,109.520203 114.565491,110.392220 
	C119.007652,111.318977 119.652931,113.368484 116.841049,116.787819 
	C118.073387,118.083885 119.258339,115.643166 120.821754,117.075157 
	C122.314827,121.399323 120.836258,125.083138 116.976654,127.896210 
	C113.888649,130.146912 110.603592,129.776352 107.775185,127.521111 
	C103.875511,124.411667 102.577484,120.380249 104.810173,115.224060 
z"/>
<path fill="#000000" opacity="1.000000" stroke="none" 
	d="
M161.592255,126.216583 
	C158.967010,122.812149 159.119034,119.231361 160.096283,115.905602 
	C162.001282,109.422462 169.737869,108.336136 174.485275,113.686508 
	C174.724976,115.596436 171.832214,115.067764 171.927200,116.905701 
	C173.288757,118.088585 174.415695,116.255066 175.899246,116.765617 
	C178.414825,120.905457 176.468796,124.456551 173.450836,127.169365 
	C169.675003,130.563416 165.549362,129.897461 161.592255,126.216583 
z"/>
<path fill="#000000" opacity="1.000000" stroke="none" 
	d="
M124.314919,133.089188 
	C127.219337,133.290054 128.397018,135.586395 130.210999,136.961853 
	C137.051437,142.148666 144.728806,141.952789 151.169907,136.274185 
	C154.143326,133.652756 154.143326,133.652756 156.931656,133.316956 
	C158.030075,134.850601 157.154221,136.125610 156.383469,137.417587 
	C150.112717,147.928909 131.167572,148.097275 124.730125,137.663788 
	C123.918869,136.348938 122.448311,134.991699 124.314919,133.089188 
z"/>
<path fill="#000000" opacity="1.000000" stroke="none" 
	d="
M137.494629,35.563938 
	C132.051788,36.478611 128.256363,40.308781 123.114708,42.756138 
	C126.039986,35.632023 133.444946,32.189274 137.494629,35.563938 
z"/>
<path fill="#000000" opacity="1.000000" stroke="none" 
	d="
M109.872971,49.299290 
	C106.700180,49.336735 103.888336,49.489716 102.003555,45.678513 
	C107.388428,47.157139 112.158989,46.860744 117.645576,44.988060 
	C115.750031,48.897568 112.884346,48.840141 109.872971,49.299290 
z"/>
</svg>