<svg version="1.1" id="Layer_1" xmlns="http://www.w3.org/2000/svg" xmlns:xlink="http://www.w3.org/1999/xlink" x="0px" y="0px"
	 width="100%" viewBox="0 0 240 240" enable-background="new 0 0 240 240" xml:space="preserve">
<path fill="#000000" opacity="1.000000" stroke="none" 
	d="
M193.743820,147.744293 
	C203.628342,138.066452 213.274124,128.650848 222.878052,119.192772 
	C225.353073,116.755371 227.939224,114.636551 231.665802,116.033440 
	C235.662857,117.531708 235.388947,121.054703 235.353180,124.437859 
	C235.307434,128.767181 235.081421,133.117920 235.416504,137.421799 
	C235.800522,142.354065 233.977951,145.874359 230.437088,149.248947 
	C218.879639,160.263672 207.524460,171.494217 196.248489,182.798370 
	C193.204025,185.850449 190.325211,187.711746 186.300491,184.832123 
	C184.792404,183.753143 183.599609,184.005630 182.348282,185.263412 
	C181.059555,186.558807 179.768326,187.916519 178.258453,188.914581 
	C174.228760,191.578293 173.478668,194.545059 175.237869,199.314545 
	C178.101257,207.077545 174.408051,214.682114 166.335480,220.015533 
	C153.674469,228.380447 133.893402,228.076431 121.432770,219.325455 
	C109.580276,211.001541 109.780029,196.183914 121.966644,188.198181 
	C134.042038,180.285278 146.989410,179.578445 160.133667,184.814850 
	C164.388702,186.509949 167.202530,186.311127 170.090057,182.828430 
	C171.866226,180.686157 174.112854,178.933960 176.115479,177.037598 
	C171.201157,170.452682 171.238098,170.041931 176.827560,164.512741 
	C182.388199,159.012131 187.936050,153.498581 193.743820,147.744293 
M131.067413,193.445663 
	C121.033615,199.307968 119.739166,206.218536 127.611465,211.895676 
	C136.006485,217.949768 151.216400,218.596802 159.895996,213.032761 
	C163.433411,210.765106 166.798676,207.928955 166.557465,203.169540 
	C166.321289,198.509476 163.085220,195.766693 159.218201,193.809341 
	C150.190369,189.239746 141.001846,189.274002 131.067413,193.445663 
M225.638474,132.838043 
	C223.968002,129.470306 223.018707,132.883194 222.438202,133.444962 
	C211.335693,144.189438 200.326248,155.030762 189.372025,165.926941 
	C187.866531,167.424438 185.440979,168.838806 188.075378,171.646103 
	C190.636505,174.375290 192.273666,172.939011 194.204514,171.013062 
	C203.147949,162.092255 212.025818,153.100586 221.168274,144.387253 
	C224.428146,141.280380 226.359299,138.043564 225.638474,132.838043 
z"/>
<path fill="#000000" opacity="1.000000" stroke="none" 
	d="
M105.450287,176.352341 
	C104.642235,181.723160 104.020424,186.683517 103.110336,191.590424 
	C101.377365,200.934174 94.940491,206.202911 85.215408,206.459091 
	C75.883553,206.704926 68.417740,201.449158 66.717773,192.329178 
	C63.734474,176.324341 61.253220,160.223099 58.768917,144.130234 
	C58.197266,140.427200 57.356789,137.046661 55.089264,133.980347 
	C49.279846,126.124466 45.464355,117.297501 42.855972,107.920975 
	C42.009953,104.879715 41.191277,102.252701 45.894619,101.309998 
	C49.807064,100.525826 51.569374,100.986092 52.540550,105.249084 
	C54.288200,112.920448 57.336681,120.252487 62.259090,126.438957 
	C66.603531,131.899017 68.415413,137.967743 69.376335,144.701263 
	C71.488518,159.501953 73.994820,174.246796 76.384018,189.007339 
	C77.128738,193.608200 80.566200,196.760284 84.829483,196.683929 
	C89.577171,196.598877 91.953194,193.988876 92.713783,189.337097 
	C95.556030,171.954102 98.346619,154.558258 101.556831,137.241455 
	C103.418053,127.201546 110.634613,122.074196 121.001091,122.483192 
	C130.533920,122.859283 136.910339,129.134933 138.468002,139.084946 
	C140.087051,149.426956 141.860077,159.757736 144.028107,169.995529 
	C145.120331,175.153259 141.865295,175.342773 138.592621,176.142288 
	C134.644501,177.106796 134.258987,174.530167 133.791077,171.694611 
	C132.086853,161.366913 130.340134,151.045395 128.490295,140.742950 
	C127.541901,135.461029 124.283310,132.392593 120.014923,132.389328 
	C115.426659,132.385818 112.286301,135.402649 111.330269,140.995316 
	C109.341721,152.628052 107.442368,164.276031 105.450287,176.352341 
z"/>
<path fill="#000000" opacity="1.000000" stroke="none" 
	d="
M54.962517,58.946766 
	C53.021526,62.375431 53.721882,64.800873 56.560551,66.972977 
	C58.132927,68.176140 59.386368,69.789948 60.822433,71.178459 
	C67.261559,77.404358 67.266594,77.399147 61.194523,85.615875 
	C65.433266,89.423210 70.012894,93.229240 74.228813,97.402687 
	C79.311279,102.433945 79.277245,103.318855 75.721764,109.945740 
	C74.676689,111.893608 73.916580,113.884697 74.233383,116.141716 
	C74.792389,120.124161 78.076180,122.312042 82.824722,121.529617 
	C85.090630,121.156265 87.279778,120.250786 89.467651,119.483566 
	C94.394066,117.756020 96.650322,119.142433 97.425888,124.365250 
	C97.583969,125.429863 97.530258,126.211479 96.644356,127.002907 
	C90.944489,132.094849 77.007935,132.884308 70.578148,128.420181 
	C63.950275,123.818520 61.562618,116.061546 65.045181,108.602760 
	C66.674591,105.112984 66.370689,102.742332 63.423157,100.394951 
	C61.740238,99.054703 60.222950,97.466660 58.810413,95.834953 
	C55.838833,92.402298 53.088299,90.550491 49.220245,95.022156 
	C47.233398,97.319054 44.276711,96.773964 41.995838,94.835075 
	C39.590797,92.790657 37.352547,90.547310 35.077343,88.353622 
	C32.652519,86.015686 30.782787,82.635399 26.377535,84.950699 
	C25.029858,85.658997 23.540211,84.321388 22.365625,83.394226 
	C19.100267,80.816750 15.867939,78.197128 12.639191,75.573685 
	C10.513338,73.846375 9.945655,71.480827 9.941917,68.875778 
	C9.920897,54.222591 9.870884,39.569435 9.868073,24.916260 
	C9.867546,22.167864 10.283031,19.412821 13.167817,18.184946 
	C16.009771,16.975300 17.823511,18.977650 19.601000,20.799612 
	C30.293480,31.759607 40.990353,42.715336 51.700901,53.657665 
	C53.109009,55.096249 54.518646,56.506065 54.962517,58.946766 
M41.897163,57.606434 
	C35.353176,49.368404 27.611059,42.335419 19.378798,34.077816 
	C19.378798,45.813530 19.405409,56.124687 19.363108,66.435562 
	C19.349859,69.665512 21.748138,70.962601 23.891239,72.524162 
	C25.556059,73.737228 26.713791,72.667084 27.808340,71.626541 
	C32.496853,67.169342 37.153145,62.678253 41.897163,57.606434 
M42.895905,71.653603 
	C41.095623,73.290306 38.762962,74.407616 37.758247,76.798492 
	C43.811275,85.393143 45.315361,85.795654 50.908638,80.408508 
	C52.312737,79.056152 54.610317,77.570633 52.054920,75.727722 
	C49.437126,73.839821 48.605854,68.113670 42.895905,71.653603 
z"/>
<path fill="#000000" opacity="1.000000" stroke="none" 
	d="
M191.341827,50.739208 
	C198.775742,60.662888 201.245773,71.818314 200.838165,83.472313 
	C200.179306,102.310440 194.621414,119.743340 184.085602,135.509323 
	C180.684113,140.599335 181.251999,146.697281 180.391449,152.387573 
	C179.852371,155.952194 178.893402,157.823410 174.768875,157.332367 
	C170.774323,156.856827 170.093445,155.199661 170.491592,151.398010 
	C171.519974,141.578262 173.573807,132.599182 179.266174,123.912994 
	C189.312424,108.583008 192.637451,91.075203 190.608719,72.776253 
	C188.098877,50.137810 163.785355,35.014660 140.872955,42.246555 
	C130.021881,45.671509 119.332352,47.896801 108.075165,45.229195 
	C102.760239,43.969719 97.843552,41.506733 92.246849,40.920879 
	C80.495728,39.690796 69.999527,42.408283 61.166401,50.152184 
	C57.411182,53.444340 56.108875,50.547211 53.998241,48.635479 
	C51.207188,46.107460 53.231911,44.623272 55.111046,43.106060 
	C68.804787,32.049675 84.367439,28.498159 101.019676,33.830013 
	C113.265343,37.750931 124.648651,38.282696 137.020981,34.105015 
	C157.598419,27.156780 179.251328,34.257015 191.341827,50.739208 
z"/>
</svg>